<svg width="62" height="36" viewBox="0 0 62 36" fill="none" xmlns="http://www.w3.org/2000/svg">
<g opacity="0.8">
<path d="M7.20059 26.5194H10.0557C9.91352 28.0539 8.7526 28.83 7.23614 28.83C4.93479 28.83 3.68498 26.7303 3.68498 24.6658C3.68498 22.6378 4.8801 20.4665 7.18281 20.4665C8.59261 20.4665 9.60996 21.3142 10.0913 22.5837L13.41 21.2074C12.2504 18.7197 10.1091 17.4854 7.3428 17.4854C2.99991 17.4854 0.0353731 20.3354 0.044945 24.6699C0.0531494 28.6353 3.46757 31.7787 7.47817 31.6665C9.61953 31.607 11.4984 30.8053 12.7687 29.0585C13.9638 27.3996 14.1074 25.7407 14.1429 23.8005H7.20196V26.5194H7.20059Z" fill="#F3F4F6"/>
<path d="M18.9628 23.6614H18.9273V22.1796H15.6797V31.2298H18.9273V27.5781C18.9273 26.026 19.3731 24.843 21.1753 24.843C21.6758 24.843 22.1038 24.8957 22.5495 25.1418V22.0552H21.9246C20.657 22.0552 19.5877 22.55 18.9628 23.6614Z" fill="#F3F4F6"/>
<path d="M8.55313 12.775C9.62518 11.8733 9.94652 10.5132 9.94652 9.18819C9.94652 7.0331 8.49844 6.09617 6.62235 5.54726L5.72807 5.28362C5.12094 5.08893 4.17333 4.78878 4.17333 4.01138C4.17333 3.26914 5.03206 2.89734 5.67474 2.89734C5.99198 2.89734 6.30512 2.94601 6.60594 3.03389C7.50023 3.29618 8.45742 2.89463 8.88405 2.07397L9.38178 1.1154C9.38725 1.10458 9.38315 1.09106 9.37221 1.0843C8.1771 0.419121 6.52527 0 5.17427 0C2.47637 0 0.52782 1.76706 0.52782 4.47106C0.52782 7.05068 1.9759 7.61582 4.17333 8.23368C4.92403 8.44594 6.29965 8.78124 6.29965 9.75333C6.29965 10.6889 5.4245 11.0959 4.60269 11.0959C3.40484 11.0959 2.36972 10.478 1.49321 9.71818L0.0027349 12.4925C-0.00273473 12.5019 -2.47568e-07 12.5155 0.010939 12.5222C1.38245 13.4686 3.03838 14.0297 4.72849 14.0297C6.0877 14.0297 7.49886 13.6579 8.55313 12.775Z" fill="#F3F4F6"/>
<path d="M16.9868 9.25849V13.6525C16.9868 13.6647 16.9963 13.6755 17.01 13.6755H18.3022C19.3715 13.6755 20.2385 12.8183 20.2385 11.761V8.07549C20.2385 5.84875 19.2567 4.31152 16.7899 4.31152C15.525 4.31152 14.6157 4.68062 13.8664 5.76763C13.8622 5.77439 13.8554 5.77844 13.8472 5.77844C13.8335 5.77844 13.824 5.76763 13.824 5.75546V4.63465C13.824 4.62113 13.8144 4.61167 13.8007 4.61167H10.5955C10.5818 4.61167 10.5723 4.62113 10.5723 4.63465V13.6525C10.5723 13.6647 10.5818 13.6755 10.5955 13.6755H11.8891C12.957 13.6755 13.824 12.8183 13.824 11.761V8.97592C13.824 7.8443 14.2 6.87356 15.5223 6.87356C17.1304 6.87356 16.9868 8.39321 16.9868 9.25849Z" fill="#F3F4F6"/>
<path d="M25.4867 13.9771C26.5546 13.9771 27.6759 13.5728 28.2502 12.6805C28.2543 12.6738 28.2612 12.6697 28.2694 12.6697C28.2817 12.6697 28.2926 12.6805 28.2926 12.6927V13.654C28.2926 13.6675 28.3022 13.6769 28.3159 13.6769H29.608C30.6774 13.6769 31.5443 12.8198 31.5443 11.7625V4.63612C31.5443 4.62395 31.5347 4.61313 31.5211 4.61313H28.3159C28.3022 4.61313 28.2926 4.62395 28.2926 4.63612V5.43515C28.2926 5.45543 28.2666 5.46624 28.2516 5.45002C27.5692 4.68614 26.4849 4.31299 25.4511 4.31299C22.7341 4.31299 20.8594 6.53973 20.8594 9.13557C20.858 11.7328 22.771 13.9771 25.4867 13.9771ZM26.3085 7.10352C27.6308 7.10352 28.3993 8.0391 28.3993 9.15315C28.3993 10.3023 27.6308 11.1852 26.3085 11.1852C24.9862 11.1852 24.2177 10.301 24.2177 9.15315C24.2177 8.0391 24.9862 7.10352 26.3085 7.10352Z" fill="#F3F4F6"/>
<path d="M35.7888 15.5835V12.8173C35.7888 12.8146 35.7915 12.8133 35.7943 12.816C36.4916 13.6069 37.5787 13.976 38.6303 13.976C41.3473 13.976 43.222 11.7844 43.222 9.16963C43.222 6.57244 41.3282 4.31055 38.5947 4.31055C37.5268 4.31055 36.4233 4.73237 35.8326 5.62469C35.8285 5.63145 35.8203 5.63551 35.8134 5.63551H35.812C35.7997 5.63551 35.7888 5.62469 35.7888 5.61252V4.61069H32.5371V17.4966H33.8526C34.9219 17.498 35.7888 16.6408 35.7888 15.5835ZM37.7729 7.10378C39.0952 7.10378 39.8637 8.03936 39.8637 9.15341C39.8637 10.3026 39.0952 11.1855 37.7729 11.1855C36.4506 11.1855 35.6821 10.3013 35.6821 9.15341C35.6821 8.03936 36.4506 7.10378 37.7729 7.10378Z" fill="#F3F4F6"/>
<path d="M47.0818 12.871C47.0818 12.8494 47.1078 12.8399 47.1228 12.8562C47.8202 13.62 48.8895 13.977 49.9232 13.977C52.6403 13.977 54.515 11.7854 54.515 9.17061C54.515 6.57342 52.6211 4.31152 49.8877 4.31152C48.8197 4.31152 47.7162 4.73335 47.1255 5.62567C47.1214 5.63243 47.1146 5.63648 47.1064 5.63648H47.105C47.0927 5.63648 47.0818 5.62567 47.0818 5.6135V4.6333C47.0818 4.62113 47.0722 4.61031 47.0585 4.61031H43.8533C43.8396 4.61031 43.8301 4.62113 43.8301 4.6333V17.4732C43.8301 17.4868 43.8396 17.4962 43.8533 17.4962H45.1455C46.2148 17.4962 47.0818 16.6391 47.0818 15.5818V12.871ZM49.0659 7.1034C50.3882 7.1034 51.1566 8.03899 51.1566 9.15304C51.1566 10.3022 50.3882 11.1851 49.0659 11.1851C47.7436 11.1851 46.9751 10.3009 46.9751 9.15304C46.9751 8.03899 47.7436 7.1034 49.0659 7.1034Z" fill="#F3F4F6"/>
<path d="M58.3214 0.354492L56.1172 8.72337H57.9495C58.837 8.72337 59.6109 8.13119 59.8324 7.28079L61.6607 0.354492H58.3214V0.354492Z" fill="#F3F4F6"/>
<path d="M57.2181 9.90723C56.0832 9.90723 55.1602 10.8185 55.1602 11.942C55.1602 13.0641 56.0818 13.9767 57.2181 13.9767C58.3531 13.9767 59.2761 13.0655 59.2761 11.942C59.2761 10.8185 58.3531 9.90723 57.2181 9.90723Z" fill="#F3F4F6"/>
<path d="M56.2071 0.523492H56.2125L56.4669 1.22653H56.5804L56.8361 0.523492H56.8402V1.22653H57.033V0.354492H56.7226L56.5243 0.869604L56.326 0.354492H56.0156V1.22653H56.2071V0.523492Z" fill="#F3F4F6"/>
<path d="M55.4295 1.22653H55.6401V0.522141H55.9095V0.354492H55.1602V0.522141H55.4295V1.22653Z" fill="#F3F4F6"/>
<path d="M28.2751 21.8799C25.3311 21.8799 22.7617 23.6267 22.7617 26.7133C22.7617 29.7999 25.3489 31.5291 28.2751 31.5291C31.2191 31.5291 33.7885 29.7823 33.7885 26.7133C33.7885 23.6267 31.2205 21.8799 28.2751 21.8799ZM28.2751 28.7426C26.9542 28.7426 26.1871 27.8611 26.1871 26.7133C26.1871 25.6019 26.9542 24.6664 28.2751 24.6664C29.596 24.6664 30.3631 25.6019 30.3631 26.7133C30.3631 27.8611 29.596 28.7426 28.2751 28.7426Z" fill="#F3F4F6"/>
<path d="M41.6958 27.0131C41.6958 28.1596 41.41 28.9721 40.0713 28.9721C38.7326 28.9721 38.4468 28.1596 38.4468 27.0131V22.1797H35.1992V27.631C35.1992 30.6121 37.3228 31.5301 40.0699 31.5301C42.817 31.5301 44.942 30.6121 44.942 27.631V22.1797H41.6944V27.0131H41.6958Z" fill="#F3F4F6"/>
<path d="M52.9557 21.8799C51.885 21.8799 50.7787 22.3031 50.1894 23.2035H50.1538V22.18H46.9062V35.7473H50.1538V30.3664C50.8499 31.16 51.9383 31.5305 52.9912 31.5305C55.7028 31.5305 57.5761 29.3429 57.5761 26.7322C57.5775 24.1377 55.6864 21.8799 52.9557 21.8799ZM52.1352 28.7426C50.8143 28.7426 50.0472 27.8611 50.0472 26.7133C50.0472 25.6019 50.8143 24.6664 52.1352 24.6664C53.4561 24.6664 54.2232 25.6019 54.2232 26.7133C54.2232 27.8611 53.4561 28.7426 52.1352 28.7426Z" fill="#F3F4F6"/>
</g>
</svg>
