<svg width="5511" height="5510" viewBox="0 0 5511 5510" fill="none" xmlns="http://www.w3.org/2000/svg">
<path d="M2444.2 5497C1970.9 5442.7 1472.1 5242.8 1096.7 4957C53.7001 4163.1 -291.8 2767.1 262 1585.1C851.7 326.4 2307.6 -300.4 3616.3 140.8C4460.6 425.5 5086.8 1052.1 5369.9 1895.6C5683.7 2830.5 5462.6 3870.2 4793.2 4608.2C4341 5106.7 3719.6 5423.3 3045.5 5498.4C2905.7 5513.9 2585.3 5513.2 2444.2 5497ZM3124.7 5371.7C4281.2 5212.7 5206.6 4285.1 5370.9 3120.1C5396.2 2940.7 5396.2 2572.8 5370.9 2393.3C5206.6 1227.7 4294.1 312.3 3125 140.4C2933.3 112.2 2576.2 112.2 2384.6 140.4C1218.7 311.8 310.1 1218.8 139.2 2381.8C111.9 2567.4 111.9 2946 139.2 3131.6C267.6 4004.8 830.3 4768.9 1619.1 5141.1C2095.8 5366 2601.9 5443.5 3124.7 5371.7ZM2490.5 5292.4C2461.4 5289.4 2418.3 5283.8 2394.7 5279.9L2351.8 5272.8V4933.6L2269.2 4912.5C2223.8 4900.9 2147.1 4880 2098.9 4866L2011.2 4840.6L1928.8 4984.6C1883.5 5063.8 1838.1 5128.6 1827.9 5128.6C1763.2 5128.6 1138.4 4763 1154 4734.2C1169.7 4705.5 1275.7 4520.7 1295.9 4486.9L1320.1 4446.5L1191.8 4319.2L1063.3 4192L990.6 4234.9C950.6 4258.5 884.3 4296.9 843.3 4320.2L768.7 4362.6L656 4193.9C549.1 4034 382.9 3723.4 382.9 3683.6C382.9 3673.4 447.7 3628 526.9 3582.7L670.9 3500.3L645.5 3412.6C631.5 3364.4 610.6 3287.7 599 3242.3L577.9 3159.7H238.6L228.1 3110.1C214.4 3045.7 214.4 2467.6 228.1 2403.1L238.6 2353.5H578L607.9 2231.3C624.4 2164.1 645.3 2087.5 654.5 2061.1L671.1 2013.1L527 1930.7C447.7 1885.3 382.8 1839.9 382.8 1829.7C382.8 1789.9 549 1479.3 655.9 1319.4L768.7 1150.7L843.3 1193.1C884.3 1216.4 950.6 1254.8 990.6 1278.4L1063.3 1321.3L1191.6 1194L1319.9 1066.7L1295.7 1026.3C1275.5 992.6 1169.4 807.8 1153.8 779C1138.2 750.3 1762.9 384.6 1827.7 384.6C1837.9 384.6 1883.3 449.4 1928.6 528.6L2011 672.6L2098.7 647.2C2146.9 633.2 2223.6 612.3 2269 600.7L2351.6 579.6V240.6L2401.2 230.1C2465.6 216.4 3043.7 216.4 3108.2 230.1L3157.8 240.6V578.4L3328.7 624.6L3499.6 670.8L3581.4 527.8C3626.4 449.2 3671.6 384.8 3681.7 384.8C3746.4 384.8 4371.2 750.4 4355.6 779.2C4339.9 807.9 4233.9 992.7 4213.7 1026.5L4189.5 1066.9L4317.8 1194.2L4446.1 1321.5L4518.8 1278.6C4558.8 1255 4625.1 1216.6 4666.1 1193.3L4740.7 1150.9L4853.5 1319.6C4960.4 1479.5 5126.6 1790.1 5126.6 1829.9C5126.6 1840.1 5062.3 1885.2 4983.6 1930.2L4840.6 2012L4886.8 2182.9L4933 2353.8H5270.9L5281.4 2403.4C5287.2 2430.7 5291.9 2589.7 5291.9 2756.9C5291.9 2924.1 5287.2 3083.1 5281.4 3110.4L5270.9 3160H4933.1L4886.9 3330.9L4840.7 3501.8L4983.7 3583.6C5062.3 3628.6 5126.7 3673.8 5126.7 3683.9C5126.7 3723.7 4960.5 4034.3 4853.6 4194.2L4740.8 4362.9L4666.2 4320.5C4625.2 4297.2 4558.9 4258.8 4518.9 4235.2L4446.2 4192.3L4317.9 4319.6L4189.6 4446.9L4213.8 4487.3C4234 4521 4340.1 4705.8 4355.7 4734.6C4371.3 4763.3 3746.6 5129 3681.8 5129C3671.6 5129 3626.5 5064.7 3581.5 4986L3499.7 4843L3328.8 4889.2L3157.9 4935.4V5103C3157.9 5265.7 3157 5271.2 3128.2 5279.7C3093.4 5289.9 2568.5 5300.4 2490.5 5292.4ZM2837.3 5054L2906.7 5045.7V4720.7L2969.5 4713.1C3086.3 4699 3375.2 4624.3 3487.2 4579.2C3548.5 4554.6 3601.6 4537.4 3605.3 4541.1C3609 4544.8 3648.2 4609.9 3692.6 4685.9L3773.2 4824L3885.1 4758.6C3946.6 4722.6 4005.3 4687.9 4015.5 4681.4C4030.4 4671.9 4017.7 4641.2 3951.6 4525.9L3869.2 4382.2L3912.9 4349.1C4063.8 4235 4231.8 4066.9 4347.2 3914.7L4380.3 3871.1L4523 3953C4601.5 3998 4667.4 4032.7 4669.3 4030.1C4694.3 3996.5 4735.4 3929.7 4774.3 3859.4L4822.3 3772.7L4677.2 3690C4597.4 3644.5 4532.1 3605.3 4532.1 3603C4532.1 3600.6 4549.7 3557.4 4571.1 3507C4615.8 3401.9 4703.8 3073.4 4704 3010.5C4704.4 2907.3 4701.9 2908.8 4881.9 2908.8H5043.7L5052.5 2833.8C5057.3 2792.5 5057.4 2724.2 5052.6 2681.8L5043.9 2604.9H4882C4701.8 2604.9 4704.4 2606.4 4704 2503.2C4703.7 2440.3 4615.8 2111.8 4571.1 2006.7C4549.6 1956.3 4532.1 1913 4532.1 1910.7C4532.1 1908.4 4597.4 1869.2 4677.2 1823.7L4822.3 1741L4774.3 1654.3C4735.3 1583.9 4694.3 1517.2 4669.3 1483.6C4667.3 1481 4602 1515.4 4524.1 1560.1C4446.2 1604.8 4378.6 1636.7 4373.8 1631C4369 1625.3 4326.1 1573 4278.3 1514.9C4177.6 1392.3 4055.4 1273.1 3947.4 1192.1C3905.6 1160.8 3871.4 1133.4 3871.4 1131.4C3871.4 1129.4 3908 1063.9 3952.7 986C4017.9 872.3 4030.3 842 4015.5 832.5C4005.3 826 3946.6 791.3 3885.1 755.3L3773.2 689.9L3692.6 828C3648.3 903.9 3608.5 969.6 3604.2 973.9C3599.9 978.2 3554.9 963.6 3504.2 941.4C3410.7 900.4 3084 814.4 2969.5 800.7L2906.7 793.2V467.7L2831.7 458.9C2790.4 454.1 2722.1 454 2679.7 458.8L2602.8 467.5V793.3L2559.9 799.9C2536.3 803.5 2487.7 810.3 2452 814.9C2374.4 824.8 2069.3 911.2 1972.7 950.6L1904.1 978.5L1820 834L1736 689.7L1624.3 755C1562.9 790.9 1504.3 825.6 1494.1 832.1C1479.2 841.6 1491.7 872.1 1557.4 986.5C1602.4 1064.9 1634.5 1132.8 1628.8 1137.4C1419.5 1306 1346.5 1375.3 1231.7 1514.5C1183.7 1572.6 1140.6 1624.9 1135.8 1630.6C1131 1636.3 1063.4 1604.4 985.5 1559.7C907.6 1515 842.3 1480.6 840.3 1483.2C815.3 1516.8 774.2 1583.6 735.3 1653.9L687.3 1740.6L832.4 1823.3C912.2 1868.8 977.5 1907.4 977.5 1909C977.5 1910.6 956.9 1962.3 931.6 2023.7C887 2132.4 814.4 2415.1 798.7 2541.7L790.9 2604.5H465.5L456.8 2681.4C452 2723.7 452.1 2792.1 456.9 2833.4L465.7 2908.4H791.3L797.5 2951.3C828.3 3165 887.8 3395.9 946.1 3527.7C963.4 3566.8 977.5 3600.6 977.5 3602.8C977.5 3605 912.2 3644.1 832.4 3689.6L687.3 3772.3L735.3 3859C774.3 3929.4 815.3 3996.1 840.3 4029.7C842.3 4032.3 907.6 3997.9 985.5 3953.2C1063.4 3908.5 1131 3876.6 1135.8 3882.3C1140.6 3888 1183.5 3940.3 1231.3 3998.4C1332 4121 1454.2 4240.2 1562.2 4321.2C1604 4352.5 1638.2 4379.9 1638.2 4381.9C1638.2 4383.9 1601.6 4449.4 1556.9 4527.3C1491.7 4641 1479.3 4671.3 1494.1 4680.8C1504.3 4687.3 1562.9 4722 1624.3 4757.9L1736 4823.2L1820 4678.9L1904 4534.6L1972.6 4562.4C2118.3 4621.5 2382.5 4691.1 2540 4711.9L2602.8 4720.2V5047.4L2652.4 5052.6C2741.7 5062.3 2767.1 5062.4 2837.3 5054ZM2716.3 4567.4C2693.8 4537.9 2663.1 4516.7 2630.2 4507.8C2602.1 4500.2 2575.9 4485.7 2571.9 4475.5C2563.7 4454 2740.1 4199 2767.4 4192.9C2787 4188.5 2986 4444.7 2986 4474.4C2986 4484.8 2963.1 4495.8 2929.8 4501.4C2888.3 4508.3 2861.2 4524.2 2826.1 4562C2800 4590.2 2772.4 4613.2 2764.9 4613.2C2757.4 4613.3 2735.5 4592.6 2716.3 4567.4ZM1833.2 4365.9C1715.8 4359.4 1707 4344.6 1737.7 4205.8C1766.4 4076.2 1809.9 3990.8 1883.9 3918.9C1999.1 3807 2131.5 3768.4 2402.1 3767.8C2568.5 3767.5 2589.5 3776.5 2589.5 3848.2C2589.5 3952.2 2588.7 3952.6 2355.4 3952.6C2172.7 3952.6 2142 3955.8 2091.6 3980.2C2053.9 3998.4 2034.6 4016.4 2034.6 4033.1C2034.6 4057.1 2047.5 4058.3 2296.2 4058.3C2482.1 4058.3 2562.4 4062.9 2573.7 4074.2C2592.8 4093.3 2595.3 4319.6 2576.6 4349.1C2566.1 4365.8 2513.3 4369.1 2243.1 4370C2066.7 4370.4 1882.2 4368.7 1833.2 4365.9ZM3118.6 4365.5C3018.3 4362.7 2963.7 4355.8 2956.9 4345.2C2951.3 4336.4 2946.6 4274.6 2946.5 4207.9C2946.2 4033.1 2932.4 4040.5 3249.6 4046.6C3471.1 4050.9 3507.9 4048.9 3507.9 4032.1C3507.9 4021.3 3481.1 3997.6 3448.4 3979.2C3392 3947.6 3378.4 3945.9 3185.7 3945.9C2994.7 3945.9 2981.4 3944.2 2964.3 3918.5C2951.6 3899.4 2948.7 3872 2954.7 3828.1L2963.3 3765.1L3202.5 3769.9C3478.5 3775.5 3518.5 3787 3632.4 3893.5C3744.6 3998.5 3809.8 4143.5 3802.5 4271.9C3798.6 4339.2 3796.5 4343 3752.2 4358.1C3707.7 4373.4 3490.1 4375.9 3118.6 4365.5ZM2699.4 4020C2645.3 3986.1 2629.2 3954.8 2629.2 3883.3C2629.2 3745.7 2805.7 3695.4 2886.1 3810.1C2897.4 3826.3 2906.7 3864.9 2906.7 3895.9C2906.7 4008.3 2791.3 4077.5 2699.4 4020ZM1743.8 3784.2C1694.3 3690.3 1576.8 3580.1 1468.3 3525.9C1351.7 3467.6 1249.1 3445.4 1133.8 3453.6C1082.8 3457.2 1039.5 3454.3 1031.8 3446.6C1013.6 3428.4 1058.5 3342.4 1105.9 3304.7C1139.5 3278 1152.7 3276.1 1261.5 3282.8C1478 3296.1 1596.8 3354.1 1779.2 3535.5C1931.9 3687.4 1939.1 3709.5 1861.7 3788.4C1830.2 3820.5 1798.2 3846.8 1790.6 3846.8C1783 3846.8 1762 3818.7 1743.8 3784.2ZM3672.3 3769.8C3615.4 3719.3 3615.3 3719 3633.8 3674C3659.9 3610.5 3863.2 3410.3 3952.8 3359.8C4104.7 3274.2 4323.4 3228.3 4409.3 3263.8C4447.6 3279.7 4529.3 3404.7 4512.4 3421.6C4507.5 3426.5 4445.9 3431.3 4375.7 3432.1C4141.5 3434.9 3972.4 3527.2 3821.3 3734.5C3774.1 3799.3 3754.1 3819.8 3737.6 3820.2C3733.1 3820.3 3703.7 3797.6 3672.3 3769.8ZM2006.1 3661.5C1994.1 3654.5 1966.6 3617.5 1945.1 3579.3C1923.5 3541.1 1861 3467.2 1806 3415C1652.4 3269.1 1483.5 3197.9 1282.6 3194.2C1228 3193.2 1195.7 3186.8 1192.2 3176.3C1189.2 3167.3 1217.1 3130.4 1254.2 3094.3C1381.3 2970.5 1626.2 2881.2 1765.7 2907.7C2043.8 2960.5 2308.8 3202 2438.3 3520.5C2489.8 3647.2 2481 3674.9 2389.5 3674.9C2327.3 3674.9 2302.9 3653.9 2273.4 3575C2195.9 3367.8 1936.2 3096.5 1827.3 3109C1797.8 3112.4 1790.3 3119.9 1790.3 3146.1C1790.3 3171.8 1808.2 3190.7 1872.9 3233C1984.4 3305.9 2011.5 3333.2 2095 3456.7C2171.9 3570.4 2196.8 3643 2165.5 3662.8C2140.8 3678.5 2033.6 3677.5 2006.1 3661.5ZM2576.4 3657.9L2543.4 3641.1L2548 3060.1C2553 2431 2544.7 2286.5 2490.8 2062.9C2451.8 1900.9 2436.3 1862.2 2342.5 1690.6C2304 1620.3 2272.6 1556.4 2272.6 1548.5C2272.6 1498.6 2435.2 1598.6 2525.2 1703.8C2578.2 1765.7 2641.2 1888.2 2681.4 2007.8C2707.6 2085.6 2708.6 2116.2 2708.6 2868.1C2708.6 3625.3 2707.9 3648.1 2683 3661.4C2649.2 3679.4 2616.7 3678.4 2576.4 3657.9ZM2837.5 3660.9C2816 3648.4 2814.9 3598.3 2820.9 2865.1C2826.9 2124 2828.7 2077.5 2854.7 1983.7C2869.8 1929.2 2900.6 1850.2 2923 1808.1C2968.1 1723.4 3090.7 1601.8 3173.3 1559.6C3268.9 1510.9 3268.6 1531 3171.5 1723.1C3100.3 1863.9 3072.7 1936.8 3037.3 2077.4L2992.8 2254.5L2988.8 2948.2C2985.2 3574.1 2982.7 3643.6 2963 3658.5C2937 3678.3 2869.5 3679.5 2837.5 3660.9ZM3111.5 3662C3075.1 3655.2 3071.9 3650.2 3072.8 3601.8C3074.8 3489.4 3255 3194 3393.3 3076.7C3481.8 3001.6 3593.4 2941.8 3693.5 2915.7C3882.2 2866.5 4047.7 2909.2 4252.1 3059.8C4316.9 3107.5 4334.6 3127.8 4331.4 3150.4C4327.5 3177.6 4321.5 3179.2 4240.6 3175C4021 3163.6 3731 3332.7 3604.2 3546.1C3540.8 3652.7 3492.7 3682.6 3407.1 3668.1C3365.9 3661.1 3355.9 3653.8 3355.9 3630.6C3355.9 3569.1 3454.6 3430.3 3604.2 3281.1C3727.3 3158.4 3751.3 3128.2 3738.4 3112.6C3715.4 3084.8 3687.6 3089.2 3613.6 3132.3C3481.2 3209.4 3340.1 3381.7 3276.1 3544.4C3232.3 3655.9 3200.4 3678.7 3111.5 3662ZM2373.5 3202.5C2356.2 3175.1 2332 3144.4 2319.6 3134.1C2264.2 3088.1 2258.4 3052.4 2259.7 2766.6C2260.4 2615.8 2256.8 2481.7 2251.8 2468.6C2245.6 2452.5 2231.7 2446.1 2208.8 2448.8C2160.2 2454.6 2150.5 2503.5 2159.6 2697.4C2167.7 2871.2 2160.2 2948.4 2135.1 2948.4C2126.8 2948.4 2096.3 2935.6 2067.4 2920C2038.4 2904.4 1988 2878 1955.3 2861.3L1895.8 2831V2450.3C1895.8 2081.1 1894.9 2067.9 1866.1 2013.1C1816.6 1918.8 1828.6 1903.2 1951.6 1902.7C2150.6 1901.8 2303.9 1994.4 2391.6 2168.5C2430.9 2246.4 2442.7 2403.5 2443.6 2858.1C2444.3 3281 2439.2 3306.5 2373.5 3202.5ZM3091.4 3229.1C3091.2 3223.6 3089.9 3020 3088.5 2776.5C3085.7 2283.5 3092.8 2225.9 3172 2105C3214.9 2039.4 3317.6 1954.6 3395.7 1920.2C3462 1891 3665.5 1891 3694.7 1920.2C3714.6 1940.1 3713.8 1945.1 3684.8 1985.8C3653.8 2029.2 3653.3 2035.8 3646.8 2413.1C3643.2 2623.9 3635 2804.3 3628.7 2814.2C3622.4 2824 3596.4 2840.8 3570.9 2851.4C3545.5 2862 3501.2 2885.6 3472.4 2903.7C3378.8 2962.8 3376.8 2958.7 3369.3 2698.5C3363.5 2498.6 3359.7 2466.9 3339.6 2454.3C3322.8 2443.7 3310.2 2443.7 3293.4 2454.3C3272.8 2467.3 3269.5 2501.7 3263.7 2764.8L3257.1 3060.7L3191.2 3149.9C3133.2 3227.9 3092.5 3260.4 3091.4 3229.1ZM1632.2 2795.1C1614.1 2777 1611.7 2735.7 1614.7 2494.5L1618.3 2214.9L1655.1 2210.7C1708.6 2204.6 1764.6 2269.3 1783.2 2358.7C1802.4 2451.3 1790.1 2790.6 1767 2805.2C1738.4 2823.4 1654.2 2817.1 1632.2 2795.1ZM3762.3 2788.7C3741.8 2776.7 3739.2 2751.1 3739.2 2561.2C3739.2 2443.5 3745.7 2324.1 3753.5 2295.9C3773.7 2223 3821.3 2179.3 3874.8 2184.4L3917.5 2188.5L3913 2479.2C3909.1 2726.2 3905.3 2772.4 3887.3 2786.4C3862.1 2806.2 3794.5 2807.4 3762.3 2788.7ZM2754.9 1983.9C2750.5 1976.8 2735.2 1937.1 2721 1895.8C2682.1 1782.7 2638 1716.1 2534.6 1614.4C2432.3 1513.8 2424 1481.6 2500.3 1481.6C2550 1481.6 2580.2 1499.8 2679.8 1589.8C2718.5 1624.8 2756 1653.4 2763 1653.4C2770 1653.4 2803.6 1623.1 2837.8 1586C2910 1507.6 2954.3 1481.6 3015.8 1481.6C3103.2 1481.6 3099 1506 2994.9 1601.8C2890.9 1697.6 2832 1791.5 2794.6 1921C2771.8 1999.8 2768.2 2005.5 2754.9 1983.9ZM2701.9 1553.2C2680.1 1534.9 2648.9 1508.8 2632.5 1495.2C2593.7 1462.8 2604.9 1436.3 2674.8 1395.3C2744 1354.7 2797.4 1353.8 2853.9 1392.3C2922.2 1438.8 2933.1 1466.3 2893.7 1492.6C2875.7 1504.6 2842.2 1530.8 2819.3 1550.8C2768.4 1595.3 2752.6 1595.6 2701.9 1553.2Z M2548.52 971.689C2543.85 935.89 2566.73 913.018 2602.53 917.607C2607.12 953.407 2584.32 976.432 2548.52 971.689Z M2646.97 1001.14C2661.89 986.455 2676.88 971.845 2692.18 957.463C2716.81 975.822 2745.04 988.291 2774.57 996.782C2773.8 1004.74 2773.04 1012.62 2772.35 1020.57C2753.45 1024.63 2734.71 1028.83 2715.97 1033.19C2715.66 1071.67 2715.74 1110.15 2716.81 1148.55C2744.35 1146.79 2771.89 1144.8 2799.5 1144.19C2777.24 1184.96 2711.84 1214.33 2677.95 1171.57C2665.33 1115.35 2673.44 1054.46 2646.97 1001.14Z M3292.06 1076.49C3307.2 1003.97 3435.79 921.662 3451.24 1032.43C3427.61 1025.7 3404.96 1016.06 3382.02 1007.41C3355.17 1044.21 3351.04 1090.1 3398.92 1110.84C3378.96 1114.51 3358.84 1117.72 3338.8 1120.7C3324.57 1157.88 3312.33 1195.9 3304.07 1234.91C3316.31 1248.83 3328.32 1262.98 3339.79 1277.52C3298.1 1272.01 3254.35 1265.2 3219.46 1239.96C3275.15 1205.23 3293.59 1138.91 3292.06 1076.49Z M2785.12 986.607C2817.63 988.29 2850.07 991.502 2882.42 995.251C2859.55 1034.42 2874.7 1078.32 2895.2 1114.81C2924.42 1079.55 2924.8 1036.71 2905.45 997.01C2938.57 990.737 3018.97 986.301 2972.77 1035.41C2896.96 1108.85 2911.19 1286.93 2781.45 1284.56C2804.94 1242.48 2873.63 1213.26 2853.66 1157.12C2835.46 1104.64 2830.26 1042.91 2785.2 1004.74C2785.2 1000.22 2785.12 991.12 2785.12 986.607Z M2521.98 1010.01C2552.35 1004.2 2583.25 1002.44 2614.16 1003.05C2616.07 1054.92 2621.42 1106.55 2628.08 1158.03C2639.25 1161.02 2650.41 1164.08 2661.74 1167.06C2661.97 1174.94 2662.27 1182.82 2662.65 1190.7C2626.55 1194.83 2590.6 1200.49 2554.18 1200.64C2590.6 1140.52 2584.86 1050.48 2521.98 1010.01Z M2389.57 1078.4C2392.01 1001.91 2532.69 991.732 2519.68 1081C2499.87 1070.83 2480.82 1059.35 2462.16 1047.19C2447.32 1055.38 2432.56 1063.87 2418.02 1072.59C2474.02 1096.38 2550.51 1100.13 2553.04 1178.76C2505.3 1229.02 2403.79 1249.83 2393.85 1157.5C2398.29 1154.74 2407.08 1149.39 2411.52 1146.64C2433.86 1180.06 2466.14 1207.83 2505.61 1180.29C2504.38 1170.04 2503.31 1159.79 2502.24 1149.62C2458.33 1142.27 2390.18 1137.46 2389.57 1078.4Z M3141.21 1028.22C3224.67 1002.36 3291.37 1101.5 3246.93 1172.72C3227.04 1236.36 3144.27 1246 3094.24 1213.72C3035.11 1160.86 3060.89 1044.36 3141.21 1028.22ZM3140.37 1054.76C3104.11 1096.84 3091.72 1201.41 3167.06 1205.84C3233.16 1178.46 3218.7 1051.78 3140.37 1054.76Z M2216.99 1078.4C2267.78 1069.22 2375.11 1003.59 2375.26 1096.3C2350.55 1098.37 2325.92 1100.97 2301.59 1105.48C2310.77 1142.66 2322.02 1179.3 2335.1 1215.25C2352.85 1216.4 2370.59 1217.62 2388.42 1218.77C2386.81 1226.95 2385.28 1235.22 2383.75 1243.4C2347.41 1252.73 2310.47 1259.47 2273.14 1263.21C2294.25 1196.97 2266.64 1124.3 2216.99 1078.4Z M3508.16 1088.42C3583.58 1031.43 3670.71 1147.25 3745.14 1175.32C3740.17 1187.18 3735.35 1198.96 3730.53 1210.81C3703.37 1193.99 3676.75 1176.16 3649.67 1159.1C3622.98 1237.28 3514.97 1308.35 3573.03 1395.32C3529.96 1381.71 3490.56 1359.29 3452.62 1335.12C3456.14 1330.99 3459.66 1326.86 3463.25 1322.73C3537.3 1311.18 3546.71 1218.46 3587.18 1167.52C3622.14 1114.12 3541.05 1105.71 3508.16 1088.42Z M2112.04 1123.99C2151.89 1093.24 2203.3 1116.11 2238.94 1141.89C2203.37 1171.8 2162.83 1194.83 2123.97 1219.99C2160.38 1276.29 2225.48 1251.2 2272.3 1224.74C2267.78 1278.36 2211.48 1312.94 2161 1305.98C2082.82 1292.44 2046.71 1173.41 2112.04 1123.99ZM2117.16 1146.25C2120.68 1161.02 2124.35 1175.86 2128.18 1190.62C2145.39 1177.08 2162.45 1163.31 2178.97 1148.93C2158.39 1147.86 2137.74 1147.02 2117.16 1146.25Z M1977.26 1201.64C1994.62 1174.79 2023.15 1160.02 2053.44 1152.75C2049.08 1226.57 2062.24 1299.63 2065.38 1373.21C1990.34 1348.05 1943.75 1275.3 1869.47 1245.77C1897.78 1225.04 1930.59 1211.81 1965.09 1205.61C1961.73 1217.16 1958.28 1228.79 1954.84 1240.34C1999.21 1293.74 2048.7 1288.61 2021.85 1211.81C2006.94 1208.44 1992.1 1205.08 1977.26 1201.64Z M1770.18 1211.66C1786.02 1210.66 1801.85 1209.74 1817.69 1208.98C1820.36 1240.11 1806.82 1266.5 1771.94 1263.75C1771.1 1246.31 1770.56 1228.94 1770.18 1211.66Z M1780.59 1317.45C1799.33 1296.57 1819.22 1276.83 1839.72 1257.78C1885 1309.95 1902.9 1388.74 1975.34 1412.61C1950.86 1437.09 1922.03 1456.67 1890.74 1471.43C1891.04 1415.52 1858.46 1369.85 1826.87 1326.86C1811.41 1323.72 1796.04 1320.59 1780.59 1317.45Z M3642.33 1407.41C3632.84 1328.77 3734.74 1257.48 3799.53 1311.79C3820.72 1335.5 3846.65 1385.76 3817.12 1410.77C3775.2 1403.05 3739.48 1376.35 3700.85 1359.29C3660.23 1421.33 3726.7 1457.67 3766.48 1493.08C3713.17 1497.98 3639.5 1471.51 3642.33 1407.41ZM3718.44 1331.68C3737.64 1347.82 3760.21 1359.06 3784.31 1366.1C3785.38 1320.43 3754.86 1315.08 3718.44 1331.68Z M1603.88 1451.39C1647.41 1416.59 1687.41 1372.14 1738.05 1349.2C1802.31 1365.57 1827.25 1441.07 1888.52 1465.7C1868.48 1487.12 1845.53 1505.7 1820.44 1520.93C1817.07 1468.22 1745.01 1348.43 1698.35 1431.2C1712.81 1482.45 1756.87 1518.4 1804.45 1538.37C1781.2 1559.25 1756.26 1578.3 1729.64 1594.75C1723.9 1526.36 1674.1 1461.49 1603.88 1451.39Z M3798.38 1448.26C3847.64 1368.78 3971.72 1400.91 3973.71 1495.53C3963.92 1503.26 3954.2 1511.06 3944.49 1518.94C3930.11 1483.52 3917.26 1411.16 3864.32 1444.36C3797.39 1477.63 3824.62 1567.59 3890.71 1582.05C3891.78 1588.09 3894 1600.25 3895.07 1606.37C3815.13 1614.25 3725.1 1514.27 3798.38 1448.26Z M1453.41 1486.66C1465.88 1453.69 1488.91 1425.77 1521.8 1411.69C1535.49 1502.64 1653.22 1521.84 1674.71 1608.97C1683.44 1673.92 1628.59 1735.27 1567.62 1749.72C1468.33 1754.01 1430.92 1600.94 1328.19 1632.3C1348.46 1591.84 1375.77 1551.6 1419.37 1534.08C1417 1550.22 1414.32 1566.36 1411.49 1582.43C1457.47 1617.69 1494.72 1663.82 1543.98 1694.57C1606.25 1727.08 1675.94 1630.7 1624.99 1582.12C1579.48 1535.46 1528.53 1461.95 1453.41 1486.66Z M4087 1419.72C4107.27 1434.03 4126.78 1449.4 4145.36 1465.93C4115.76 1495.45 4083.86 1522.46 4053.03 1550.61C4182.24 1612.95 4038.04 1698.7 3998.49 1767.24C3982.35 1750.41 3966.21 1733.58 3950.07 1716.68C3991.84 1693.88 4047.07 1665.96 4055.94 1615.86C4021.59 1536.61 3941.58 1644.24 3922.84 1688.91C3902.34 1669.25 3882.22 1649.29 3863.02 1628.4C3957.34 1592.53 4047.07 1512.67 4087 1419.72Z M4161.12 1661.53C4190.57 1703.6 4226.68 1743.15 4245.57 1791.34C4246.34 1866.99 4132.05 1862.02 4126.47 1934.31C4123.87 1937.29 4118.67 1943.18 4116.07 1946.17C4098.93 1922.53 4082.71 1898.28 4067.34 1873.57C4112.78 1851.39 4173.28 1838.08 4197.23 1789.27C4169.46 1698.09 4062.06 1801.05 4060.3 1859.04C4040.57 1833.56 4023.2 1806.41 4007.75 1778.26C4069.56 1757.68 4132.97 1723.72 4161.12 1661.53Z M1236.01 1817.42C1193.41 1779.41 1208.17 1693.5 1274.03 1695.72C1267 1719.2 1257.66 1741.92 1246.95 1763.95C1265.62 1779.63 1285.12 1794.32 1305.01 1808.55C1319.01 1795.55 1333.24 1782.69 1347.77 1770.23C1347.09 1788.43 1345.79 1806.56 1343.95 1824.69C1376 1849.48 1410.88 1870.36 1446.22 1890.02C1462.36 1881.53 1478.58 1873.19 1495.03 1865.31C1482.87 1905.01 1463.28 1941.88 1440.87 1976.69C1412.72 1879.16 1292.16 1888.18 1236.01 1817.42Z M1175.05 1864.24C1234.25 1862.86 1237.54 1935.84 1174.74 1929.49C1174.28 1907.69 1174.36 1885.96 1175.05 1864.24Z M4235.86 1877.7C4355.88 1854.14 4388.01 2062.36 4259.5 2070.47C4122.87 2106.19 4102.14 1888.33 4235.86 1877.7ZM4258.12 1914.73C4212.45 1926.58 4146.36 1984.26 4191.26 2030.62C4269.44 2078.96 4357.18 1916.26 4258.12 1914.73Z M1251.31 1901.34C1315.11 1923.6 1366.97 1975.84 1437.43 1978.29C1426.1 2005.07 1413.79 2031.46 1400.71 2057.46C1397.11 2056.62 1389.92 2054.94 1386.33 2054.1C1364.53 1986.02 1283.75 1971.64 1222.7 1959.09C1232.04 1939.74 1241.6 1920.46 1251.31 1901.34Z M1160.82 2115.45C1174.74 2061.67 1201.74 2012.49 1232.95 1966.9C1269.29 1990.92 1256.52 2024.04 1241.9 2056.32C1277.02 2094.18 1351.06 2125.78 1379.37 2061.37C1386.02 2106.88 1358.64 2146.35 1339.97 2185.37C1300.42 2129.91 1228.9 2091.97 1160.82 2115.45Z M4280.99 2100.99C4347.31 2065.88 4440.25 2061.37 4473.61 1983.57C4488.91 2007.29 4501.07 2032.91 4509.48 2059.91C4424.04 2108.87 4282.75 2103.52 4245.8 2207.63C4221.09 2172.29 4204.8 2131.97 4196.92 2089.59C4222.17 2105.89 4252.69 2119.35 4280.99 2100.99Z M1159.9 2159.13C1216.97 2160.28 1270.28 2212.14 1327.27 2177.1C1333.01 2186.74 1337.52 2196.99 1340.51 2207.93C1300.27 2242.13 1308.76 2298.27 1287.8 2342.41C1219.72 2331.09 1204.58 2266.22 1202.43 2207.24C1186.29 2210.46 1170.08 2213.67 1153.94 2216.96C1164.72 2243.27 1174.67 2269.97 1181.32 2297.66C1110.18 2294.75 1113.01 2192.48 1159.9 2159.13ZM1242.06 2236.69C1243.28 2251.31 1244.51 2265.99 1245.88 2280.68C1252.54 2280.68 1265.85 2280.68 1272.43 2280.68C1272.35 2267.22 1272.2 2253.83 1272.12 2240.44C1264.62 2239.53 1249.63 2237.61 1242.06 2236.69Z M4334.54 2168.15C4422.66 2133.35 4515.07 2268.21 4430.77 2325.66C4376.46 2385.25 4261.87 2353.58 4254.52 2271.12C4242.97 2219.87 4287.34 2176.95 4334.54 2168.15ZM4298.43 2313.57C4354.12 2321.45 4456.78 2283.89 4413.33 2212.98C4354.73 2185.9 4262.63 2243.12 4298.43 2313.57Z M1077.67 2434.74C1055.64 2291.47 1207.33 2356.1 1287.95 2349.68C1282.29 2376.53 1276.17 2403.3 1269.06 2429.77C1229.05 2395.65 1177.34 2382.65 1125.56 2383.87C1122.04 2402.23 1118.59 2420.74 1115.3 2439.25C1165.79 2452.95 1220.26 2469.01 1270.44 2444.92C1264.55 2477.35 1258.66 2509.78 1252.23 2542.14C1169.62 2485.46 1048.07 2457 952.37 2493.87C954.282 2468.17 955.506 2442.47 956.424 2416.76C996.89 2422.5 1037.13 2429.77 1077.67 2434.74Z M4219.79 2381.42C4280.91 2375.23 4347.08 2398.94 4402.92 2358.71C4498.16 2333.16 4510.32 2449.35 4503.06 2515.83C4450.05 2507.49 4390.84 2510.78 4349.91 2469.93C4347.62 2510.32 4335.23 2566.77 4285.04 2568.76C4204.5 2561.49 4175.73 2437.72 4219.79 2381.42ZM4377.83 2444.92C4408.81 2492.88 4472.76 2449.05 4466.03 2400.4C4434.06 2397.72 4371.03 2398.87 4377.83 2444.92ZM4233.03 2413.86C4226.76 2458.91 4226.53 2523.78 4285.12 2531.2C4302.41 2485.3 4299.66 2409.04 4233.03 2413.86Z M4329.72 2621.54C4396.88 2598.36 4463.81 2565.32 4512.62 2512.15C4514.07 2549.18 4514.3 2586.2 4512.7 2623.3C4472.92 2602.27 4432.91 2623.46 4402.62 2650.15C4441.63 2665.76 4486.15 2672.57 4521.03 2643.73C4521.26 2673.25 4520.96 2702.78 4520.96 2732.38C4430.39 2674.1 4317.86 2670.12 4224.84 2616.19C4224.31 2598.29 4223.7 2580.39 4223.39 2562.56C4260.41 2578.71 4289.79 2614.35 4329.72 2621.54Z M1042.02 2700.72C925.902 2711.35 946.862 2480.87 1062.91 2550.17C1021.52 2571.44 988.934 2606.24 1003.77 2656.2C1092.2 2674.02 1084.02 2523.93 1176.35 2542.75C1286.27 2551.55 1279.54 2757.7 1156.38 2715.1C1157.53 2707.22 1158.75 2699.49 1159.98 2691.77C1206.56 2689.09 1243.97 2633.02 1204.42 2597.22C1119.36 2561.95 1131.6 2722.52 1042.02 2700.72Z" fill="white"/>
</svg>
