<svg width="593" height="128" viewBox="0 0 593 128" fill="none" xmlns="http://www.w3.org/2000/svg">
<mask id="mask0_654_923" style="mask-type:alpha" maskUnits="userSpaceOnUse" x="0" y="0" width="593" height="128">
<g clip-path="url(#clip0_654_923)">
<path fill-rule="evenodd" clip-rule="evenodd" d="M593.001 34.5948H574.269V59.4967H533.701V34.5948H514.975V59.4967H482.203C479.312 59.4982 476.539 58.3525 474.491 56.3108C472.443 54.269 471.288 51.4979 471.279 48.605V34.5948H452.553V48.605C452.545 51.4989 451.39 54.2715 449.343 56.3145C447.295 58.3575 444.52 59.504 441.629 59.5025C438.737 59.504 435.963 58.3575 433.915 56.3145C431.867 54.2715 430.712 51.4989 430.705 48.605V34.5948H411.979V48.605C411.971 51.4989 410.817 54.2715 408.769 56.3145C406.721 58.3575 403.946 59.504 401.055 59.5025H390.131V34.5948H371.411V59.4967H271.531V78.1847H293.379V81.2974C293.379 96.7505 280.78 109.318 265.293 109.318C249.805 109.318 237.201 96.7505 237.201 81.2974V59.5025H218.48V81.2974C218.48 107.049 239.485 128 265.298 128C291.111 128 312.111 107.054 312.111 81.2974V78.1847H401.061C408.598 78.1893 415.852 75.3155 421.345 70.1498C426.839 75.3148 434.096 78.1865 441.634 78.1789C449.171 78.185 456.426 75.3134 461.919 70.1498C467.411 75.3139 474.666 78.1856 482.203 78.1789H593.001V34.5948Z" fill="black"/>
<path fill-rule="evenodd" clip-rule="evenodd" d="M492.435 112.273H514.841V128H534.049V93.4051H492.435V112.273ZM593 0H554.857V17.2975H593V0Z" fill="black"/>
<path fill-rule="evenodd" clip-rule="evenodd" d="M156.052 65.7279H62.422V34.5948H156.052V65.7279ZM156.052 128H0V96.8669H156.052V128Z" fill="#FF5B35"/>
</g>
</mask>
<g mask="url(#mask0_654_923)">
<rect x="-31" y="-50" width="673" height="209" fill="white"/>
</g>
<defs>
<clipPath id="clip0_654_923">
<rect width="593" height="128" fill="white"/>
</clipPath>
</defs>
</svg>
