<svg width="21" height="19" viewBox="0 0 21 19" fill="none" xmlns="http://www.w3.org/2000/svg">
<path d="M4.60022 6.0918H0.527344V19.0002H4.60022V6.0918Z" fill="#ABABAB"/>
<path d="M15.7241 5.96973C13.3909 5.96973 11.9302 7.23267 11.6664 8.12029V6.08638H7.10156C7.16243 7.16166 7.10156 18.9948 7.10156 18.9948H11.6664V12.0156C11.6361 11.6607 11.6705 11.3033 11.7679 10.9607C11.9245 10.4996 12.2215 10.0992 12.6171 9.8154C13.0128 9.53162 13.4873 9.37873 13.9742 9.37816C15.5618 9.37816 16.2871 10.5701 16.2871 12.32V18.9999H20.9078V11.8229C20.9027 7.82611 18.6304 5.96973 15.7241 5.96973Z" fill="#ABABAB"/>
<path d="M2.49039 0C0.983983 0 0 0.963695 0 2.24186C0 3.52002 0.958623 4.47864 2.42953 4.47864H2.45996C3.98158 4.47864 4.94528 3.46423 4.94528 2.23679C4.94528 1.00934 3.99172 0 2.49039 0Z" fill="#ABABAB"/>
</svg>
